<svg xmlns="http://www.w3.org/2000/svg" viewBox="0 0 378.49 545.13"><defs><style>.cls-1{fill:#5b453b;}.cls-2{fill:#1e1e1e;}.cls-3{fill:#5b5b5b;}.cls-4{fill:#dbdbdb;}.cls-5{fill:#646464;}</style></defs><title>AIR BALLOON</title><g id="Objects"><rect class="cls-1" x="169.16" y="455.24" width="1.49" height="25.62"/><rect class="cls-1" x="212.91" y="455.24" width="1.49" height="25.94"/><path class="cls-2" d="M225.78,510.66c0,5.52-5.76,10-12.86,10H170.48c-7.1,0-12.86-4.47-12.86-10V489.74c0-5.51,5.76-10,12.86-10,0,0,8.36,3.33,23.06,3.33s19.38-3.33,19.38-3.33c7.1,0,12.86,4.47,12.86,10Z"/><path class="cls-3" d="M157.62,490.69a10.55,10.55,0,0,0,11-.47s8.3,5.54,14.52-.16c0,0,9.42,5.7,16-.16,0,0,7,5.23,14,.32,0,0,5.11,5.86,12.77.15v2.38c-6.82,5.71-12.77-.16-12.77-.16-7,4.92-14-.31-14-.31-6.54,5.86-16,.16-16,.16-6.22,5.7-14.52.15-14.52.15a10.53,10.53,0,0,1-11,.48Z"/><path class="cls-4" d="M169.76,493.6s0,.09,0,.13c0,1-.45,1.81-1,1.81s-1-.81-1-1.81c0-.08,0-.15,0-.22-2.32.82-4.17,4.75-4.17,7.29a4.93,4.93,0,1,0,9.86,0C173.49,498.35,171.93,494.6,169.76,493.6Z"/><path class="cls-4" d="M168.78,495.54c.54,0,1-.81,1-1.81,0,0,0-.09,0-.13,0-.93-.46-1.67-1-1.67s-.92.69-1,1.58c0,.07,0,.14,0,.22C167.79,494.73,168.23,495.54,168.78,495.54Z"/><path class="cls-4" d="M184.18,493.6s0,.09,0,.13c0,1-.44,1.81-1,1.81s-1-.81-1-1.81a1.55,1.55,0,0,1,0-.22c-2.33.82-4.17,4.75-4.17,7.29a4.93,4.93,0,1,0,9.85,0C187.91,498.35,186.36,494.6,184.18,493.6Z"/><path class="cls-4" d="M183.2,495.54c.55,0,1-.81,1-1.81,0,0,0-.09,0-.13,0-.93-.46-1.67-1-1.67s-.91.69-1,1.58a1.55,1.55,0,0,0,0,.22C182.22,494.73,182.66,495.54,183.2,495.54Z"/><path class="cls-4" d="M200.19,493.6s0,.09,0,.13c0,1-.45,1.81-1,1.81s-1-.81-1-1.81v-.22c-2.32.82-4.17,4.75-4.17,7.29a4.93,4.93,0,1,0,9.86,0C203.92,498.35,202.36,494.6,200.19,493.6Z"/><path class="cls-4" d="M199.21,495.54c.54,0,1-.81,1-1.81,0,0,0-.09,0-.13,0-.93-.46-1.67-1-1.67s-.92.69-1,1.58v.22C198.23,494.73,198.67,495.54,199.21,495.54Z"/><path class="cls-4" d="M214.24,493.6v.13c0,1-.44,1.81-1,1.81s-1-.81-1-1.81a1.55,1.55,0,0,1,0-.22c-2.33.82-4.17,4.75-4.17,7.29a4.93,4.93,0,1,0,9.86,0C218,498.35,216.41,494.6,214.24,493.6Z"/><path class="cls-4" d="M213.26,495.54c.54,0,1-.81,1-1.81v-.13c0-.93-.47-1.67-1-1.67s-.92.69-1,1.58a1.55,1.55,0,0,0,0,.22C212.27,494.73,212.71,495.54,213.26,495.54Z"/><path class="cls-5" d="M168.46,398.19s-23.79-44.78-61-108l-1-1.62c-14.91-25.32-26.93-51.31-34.82-76.78s-11.64-50.24-10.1-73.42a130.14,130.14,0,0,1,7.2-35.53C73.45,90,79.71,80.35,86.55,73.05c-5.1.59-33.9,6.48-53.3,64.69l-.21.66c-8.19,25-8.27,50-2.91,73.42,6.76,29.61,22.2,56.76,41,78.4,4.32,5,8.81,9.67,13.41,14,40.56,38.43,76.85,98.92,76.85,98.92s6.36.42,9.36-3.36A12.8,12.8,0,0,1,168.46,398.19Z"/><path class="cls-5" d="M348.66,138.4l-.21-.66c-19.4-58.21-48.2-64.1-53.3-64.69,6.84,7.3,13.1,17,17.72,29.82a130.14,130.14,0,0,1,7.2,35.53c1.54,23.18-2.23,48-10.1,73.42s-19.91,51.46-34.82,76.78l-.95,1.62c-37.17,63.19-60.95,108-60.95,108a13.13,13.13,0,0,1-2.25,1.62c3,3.78,9.36,3.36,9.36,3.36s36.29-60.49,76.85-98.92c4.6-4.36,9.09-9.05,13.41-14,18.75-21.64,34.19-48.79,41-78.4C356.93,188.38,356.85,163.4,348.66,138.4Z"/><path class="cls-4" d="M61.43,142.19q-.21,5-.1,10.05l.18,5q.27,5.15.83,10.38l.6,5.05q.63,4.71,1.49,9.48L65,185l.36,1.8.45,2.18,1.13,5q2.07,8.83,4.84,17.77c7.89,25.47,19.91,51.46,34.82,76.78l1,1.62c37.17,63.19,61,108,61,108a12.8,12.8,0,0,0,2.24,1.62c2,1.1,4.69,1.68,5.62-2.49a17.83,17.83,0,0,1-1.46-1.27s-18.7-59.7-37.21-105.83c-1.6-4-3.19-7.86-4.77-11.58-8.46-19.95-17.31-42.2-23.38-66.82-.27-1.08-.52-2.17-.78-3.26l-1.14-5.05c-.18-.83-.34-1.66-.51-2.49l-1-5.05q-.81-4.31-1.47-8.72h-.32v-2.1q-.5-3.54-.91-7.14v2.05l-.32-5.05c-.34-3.36-.6-6.76-.81-10.2l-.23-5.05c-.11-3.06-.16-6.16-.15-9.28l.07-5c.06-2.33.14-4.68.28-7A232.77,232.77,0,0,1,108,98.6c5.65-24.25,15.2-38.53,25.44-46.78-4.85-.88-28,1.07-46.86,21.23-6.84,7.3-13.1,17-17.72,29.82a130.14,130.14,0,0,0-7.2,35.53"/><path class="cls-4" d="M321,138.4a129.78,129.78,0,0,0-7.21-35.53C309.14,90,302.87,80.35,296,73.05c-18.85-20.16-42-22.11-46.87-21.23C259.42,60.07,269,74.35,274.61,98.6a231.79,231.79,0,0,1,5.75,39.8,246,246,0,0,1-7.28,73.42c-6.07,24.62-14.91,46.87-23.37,66.82-1.58,3.72-3.18,7.6-4.78,11.58-18.51,46.13-37.21,105.83-37.21,105.83a17.83,17.83,0,0,1-1.46,1.27c.93,4.17,3.64,3.59,5.62,2.49a13.13,13.13,0,0,0,2.25-1.62s23.79-44.78,60.95-108l1-1.62C291,263.28,303,237.29,310.86,211.82S322.5,161.58,321,138.4Z"/><path class="cls-5" d="M182.69,393.92c-3.06-37-11.77-69.67-20.37-103.7-6.23-24.69-12.41-50.1-16.33-78.4a435.31,435.31,0,0,1-4-73.42c0-1.4.08-2.8.14-4.22C144.46,73.63,161,50.77,175.5,42.49c-6.33-1.49-25.16-4.3-42.09,9.33C123.17,60.07,113.62,74.35,108,98.6a232.77,232.77,0,0,0-5.75,39.8,246,246,0,0,0,7.28,73.42c6.07,24.62,14.92,46.87,23.38,66.82,1.58,3.72,3.17,7.6,4.77,11.58,18.51,46.13,37.21,105.83,37.21,105.83a17.83,17.83,0,0,0,1.46,1.27c2.28,1.77,6.6,4.29,8.51-.22A14.67,14.67,0,0,1,182.69,393.92Z"/><path class="cls-5" d="M280.36,138.4a231.79,231.79,0,0,0-5.75-39.8C269,74.35,259.42,60.07,249.17,51.82,232.24,38.19,213.41,41,207.09,42.49c14.53,8.28,31,31.14,33.37,91.69,0,1.42.09,2.82.13,4.22a436.41,436.41,0,0,1-4,73.42c-3.93,28.3-10.1,53.71-16.34,78.4-8.6,34-17.31,66.7-20.37,103.7a14.67,14.67,0,0,1-2.14,3.18c1.91,4.51,6.23,2,8.51.22a17.83,17.83,0,0,0,1.46-1.27s18.7-59.7,37.21-105.83c1.6-4,3.2-7.86,4.78-11.58,8.46-19.95,17.3-42.2,23.37-66.82A246,246,0,0,0,280.36,138.4Z"/><path class="cls-4" d="M240.59,138.4c0-1.4-.08-2.8-.13-4.22-2.33-60.55-18.84-83.41-33.37-91.69a33.8,33.8,0,0,0-8.77-3.5l0-.17a33.56,33.56,0,0,0-14.11,0,1,1,0,0,1,0,.17,33.75,33.75,0,0,0-8.76,3.5c-14.53,8.28-31,31.14-33.37,91.69-.06,1.42-.1,2.82-.14,4.22a435.31,435.31,0,0,0,4,73.42c3.92,28.3,10.1,53.71,16.33,78.4,8.6,34,17.31,66.7,20.37,103.7a14.67,14.67,0,0,0,2.14,3.18c1.56,1.74,3.85,3.19,6.46,1.31,2.61,1.88,4.9.43,6.46-1.31a14.67,14.67,0,0,0,2.14-3.18c3.06-37,11.77-69.67,20.37-103.7,6.24-24.69,12.41-50.1,16.34-78.4A436.41,436.41,0,0,0,240.59,138.4Z"/><path class="cls-2" d="M172.17,456.36a.83.83,0,0,1-.83-.81c-.52-27.4-3.38-42.72-3.41-42.87a.83.83,0,1,1,1.63-.32c0,.16,2.91,15.6,3.44,43.16a.83.83,0,0,1-.82.84Z"/><path class="cls-2" d="M181.2,455.41h0a.83.83,0,0,1-.78-.87c1-18.13-.85-42.64-1.1-44.1a.82.82,0,0,1,.51-1,.84.84,0,0,1,1.07.48c.25.67,2.2,26.21,1.18,44.69A.83.83,0,0,1,181.2,455.41Z"/><path class="cls-2" d="M191.62,454.1a.83.83,0,0,1-.83-.83V409.51a.83.83,0,0,1,.83-.83h0a.83.83,0,0,1,.83.83v43.76a.83.83,0,0,1-.83.83Z"/><path class="cls-2" d="M201.79,454.2a.84.84,0,0,1-.83-.72c-2.17-16.94,1.21-43.29,1.68-44.05a.83.83,0,0,1,1.14-.27.82.82,0,0,1,.33,1c-.46,1.77-3.6,26.69-1.5,43.1a.83.83,0,0,1-.72.93Z"/><path class="cls-2" d="M211.16,454a.83.83,0,0,1-.83-.77c-1.9-26.93,1.4-43.1,1.44-43.26a.81.81,0,0,1,1-.64.83.83,0,0,1,.64,1c0,.16-3.29,16.13-1.4,42.8a.83.83,0,0,1-.77.89Z"/><path class="cls-2" d="M159.43,400.13s30.13-15.65,64.11-.39c0,0-6.18,11-8.11,21.05,0,0-27.8-5.22-48.08,1.93A62.88,62.88,0,0,0,159.43,400.13Z"/><path class="cls-4" d="M166.19,416s20.86-9.27,50.59-.77l-1.73,6.57s-26.91-6.05-47.7,1Z"/><path class="cls-4" d="M158,397.6s30.69-17.25,67,.33l-1.54,2.14s-30.43-15.78-63.87.27Z"/><path class="cls-4" d="M168.71,454.14s24.75-6.66,46.61-.51c0,0,3.93,3.07-.68,6.15,0,0-24.08-5-45.6,1.36C169,461.14,164.6,457.72,168.71,454.14Z"/></g></svg>