<svg xmlns="http://www.w3.org/2000/svg" viewBox="0 0 378.49 545.13"><defs><style>.cls-1{isolation:isolate;}.cls-2{fill:#5b5b5b;}.cls-3{fill:#b1b1b1;}.cls-4{fill:#9b9b9b;}.cls-4,.cls-5{mix-blend-mode:multiply;}.cls-5{fill:#dbe9eb;}.cls-6{fill:#fff;}.cls-7{fill:#d7e7eb;}</style></defs><title>AIRPLANE</title><g class="cls-1"><g id="Objects"><path class="cls-2" d="M348.74,63.4a5.55,5.55,0,0,0-7.4-3.83c-14,5.35-51.13,23.73-78.9,75.45-34.9,65-109.72,195.6-136.69,254.51-24.07,52.6-39.26,105.18-42.24,115.84a2.53,2.53,0,0,0,1.25,2.91l.38.21a5.39,5.39,0,0,0,5.38-.15c11.31-6.95,56.34-38.84,106.08-131.47,57.56-107.18,137.87-247.4,147.58-272C351.56,86.15,350.81,71.87,348.74,63.4Z"/><path class="cls-3" d="M130.8,392.24c27-58.9,101.78-189.52,136.68-254.5,19.37-36.07,42.45-58.95,59.4-71.32-17.65,9.87-43.66,29.91-64.44,68.6-34.9,65-109.72,195.6-136.69,254.51C104.42,436.13,90.07,482.72,85,500.15,94.18,476.33,112.59,432,130.8,392.24Z"/><path class="cls-4" d="M333.1,98.92c-9.71,24.6-90,164.82-147.58,272-40.12,74.71-78.79,119.86-98.2,138.19a5.35,5.35,0,0,0,3.2-.77c11.31-6.95,56.34-38.84,106.08-131.47,57.56-107.18,137.87-247.4,147.58-272,7.38-18.72,6.63-33,4.56-41.47a5.48,5.48,0,0,0-3.63-3.91C344,69.48,338.8,84.48,333.1,98.92Z"/><path class="cls-5" d="M279,226.8,274.45,209l-13.92,25.14-29.33,53-2.95,31.43C247,284.28,260.66,259.9,279,226.8Z"/><path class="cls-2" d="M110.59,425.31h0S54.38,450.94,18.7,457.13L5.63,481.47l80.05,16.36C89.76,484,98.32,456.5,110.59,425.31Z"/><path class="cls-6" d="M317,84.44l9.57-17.82a143.2,143.2,0,0,0-19.19,13.07L303,87.78a.77.77,0,0,0,.9,1.1L316,85.23A1.6,1.6,0,0,0,317,84.44Z"/><path class="cls-6" d="M299.71,93.87l-4.2,7.82a2.19,2.19,0,0,0,1.81,3.22l3.77.22a7.26,7.26,0,0,0,6.8-3.81l5.92-11A.92.92,0,0,0,312.74,89l-11.13,3.35A3.22,3.22,0,0,0,299.71,93.87Z"/><polygon class="cls-7" points="184.01 351.75 164.51 362.24 158.64 373.18 172.34 373.49 184.01 351.75"/><polygon class="cls-3" points="184.01 351.75 164.51 362.24 158.64 373.18 172.34 373.49 184.01 351.75"/><path class="cls-6" d="M122.17,433.47l1.7-6.76s-7.33,8.24-18.18,28.44-30.62,62.44-30.62,62.44Z"/><path class="cls-7" d="M123.87,426.71s.87,11-11.22,33.5c-10.53,19.6-29.81,49.27-34.64,56.65a2.22,2.22,0,0,1-2.92.74h0Z"/><path class="cls-3" d="M123.87,426.71s.87,11-11.22,33.5c-10.53,19.6-29.81,49.27-34.64,56.65a2.22,2.22,0,0,1-2.92.74h0Z"/><path class="cls-3" d="M159.36,383.86l0,.06a3.19,3.19,0,0,1-4.33,1.3l-3.23-1.73a3.2,3.2,0,0,1-1.3-4.34l0,0a3.2,3.2,0,0,1,4.33-1.31l3.23,1.74A3.19,3.19,0,0,1,159.36,383.86Z"/><path class="cls-3" d="M154.5,392.92l0,.06a3.21,3.21,0,0,1-4.34,1.3l-3.22-1.73a3.19,3.19,0,0,1-1.31-4.33l0-.06a3.2,3.2,0,0,1,4.33-1.31l3.23,1.74A3.2,3.2,0,0,1,154.5,392.92Z"/><path class="cls-3" d="M149.63,402l0,.06a3.19,3.19,0,0,1-4.33,1.3L142,401.61a3.2,3.2,0,0,1-1.31-4.33l0-.06a3.21,3.21,0,0,1,4.34-1.31l3.23,1.74A3.2,3.2,0,0,1,149.63,402Z"/><path class="cls-3" d="M144.77,411l0,.06a3.2,3.2,0,0,1-4.33,1.31l-3.23-1.74a3.19,3.19,0,0,1-1.3-4.33l0-.06a3.19,3.19,0,0,1,4.33-1.3l3.23,1.73A3.2,3.2,0,0,1,144.77,411Z"/><path class="cls-3" d="M279,161.07l0,.06a3.2,3.2,0,0,1-4.33,1.3l-3.23-1.73a3.21,3.21,0,0,1-1.31-4.34l0-.05a3.21,3.21,0,0,1,4.34-1.31l3.23,1.74A3.19,3.19,0,0,1,279,161.07Z"/><rect class="cls-3" x="266.46" y="162.75" width="6.47" height="10.07" rx="3.2" ry="3.2" transform="translate(-5.52 326.33) rotate(-61.83)"/><path class="cls-3" d="M269.28,179.19l0,.06a3.21,3.21,0,0,1-4.34,1.31l-3.22-1.74a3.19,3.19,0,0,1-1.31-4.33l0-.06a3.2,3.2,0,0,1,4.34-1.3l3.22,1.73A3.19,3.19,0,0,1,269.28,179.19Z"/><path class="cls-3" d="M264.41,188.25l0,.06a3.2,3.2,0,0,1-4.33,1.31l-3.23-1.74a3.2,3.2,0,0,1-1.31-4.33l0-.06a3.21,3.21,0,0,1,4.34-1.3l3.23,1.73A3.2,3.2,0,0,1,264.41,188.25Z"/><path class="cls-3" d="M259.55,197.32l0,.05a3.21,3.21,0,0,1-4.34,1.31L252,196.94a3.19,3.19,0,0,1-1.3-4.33l0-.06a3.19,3.19,0,0,1,4.33-1.3l3.23,1.73A3.21,3.21,0,0,1,259.55,197.32Z"/><path class="cls-3" d="M254.68,206.38l0,.06a3.2,3.2,0,0,1-4.33,1.3L247.09,206a3.21,3.21,0,0,1-1.31-4.34l0,0a3.2,3.2,0,0,1,4.34-1.31l3.22,1.73A3.2,3.2,0,0,1,254.68,206.38Z"/><rect class="cls-3" x="242.13" y="208.05" width="6.47" height="10.07" rx="3.2" ry="3.2" transform="translate(-58.41 328.55) rotate(-61.78)"/><path class="cls-3" d="M245,224.5l0,.06a3.2,3.2,0,0,1-4.34,1.3l-3.23-1.73a3.2,3.2,0,0,1-1.3-4.33l0-.06a3.2,3.2,0,0,1,4.33-1.31l3.23,1.74A3.2,3.2,0,0,1,245,224.5Z"/><path class="cls-3" d="M240.08,233.56l0,.06a3.2,3.2,0,0,1-4.33,1.31l-3.23-1.74a3.2,3.2,0,0,1-1.31-4.33l0-.06a3.2,3.2,0,0,1,4.34-1.3l3.22,1.73A3.19,3.19,0,0,1,240.08,233.56Z"/><path class="cls-3" d="M225.48,260.75l0,.06a3.2,3.2,0,0,1-4.33,1.3l-3.23-1.73a3.21,3.21,0,0,1-1.31-4.34l0-.05a3.2,3.2,0,0,1,4.34-1.31l3.22,1.74A3.19,3.19,0,0,1,225.48,260.75Z"/><path class="cls-3" d="M220.61,269.81l0,.06a3.19,3.19,0,0,1-4.33,1.3L213,269.44a3.19,3.19,0,0,1-1.3-4.33l0-.06a3.2,3.2,0,0,1,4.33-1.31l3.23,1.74A3.19,3.19,0,0,1,220.61,269.81Z"/><path class="cls-3" d="M215.75,278.87l0,.06a3.2,3.2,0,0,1-4.34,1.3l-3.23-1.73a3.2,3.2,0,0,1-1.3-4.33l0-.06a3.2,3.2,0,0,1,4.33-1.31l3.23,1.74A3.2,3.2,0,0,1,215.75,278.87Z"/><path class="cls-3" d="M210.88,287.93l0,.06a3.2,3.2,0,0,1-4.33,1.31l-3.23-1.74a3.2,3.2,0,0,1-1.31-4.33l0-.06a3.2,3.2,0,0,1,4.34-1.3l3.23,1.73A3.2,3.2,0,0,1,210.88,287.93Z"/><rect class="cls-3" x="198.33" y="289.61" width="6.47" height="10.07" rx="3.2" ry="3.2" transform="translate(-153.37 332.95) rotate(-61.78)"/><path class="cls-3" d="M201.15,306.06l0,.05a3.2,3.2,0,0,1-4.34,1.31l-3.23-1.73a3.21,3.21,0,0,1-1.3-4.34l0-.06a3.2,3.2,0,0,1,4.33-1.3l3.23,1.73A3.21,3.21,0,0,1,201.15,306.06Z"/><path class="cls-3" d="M196.28,315.12l0,.06a3.2,3.2,0,0,1-4.33,1.3l-3.23-1.73a3.21,3.21,0,0,1-1.31-4.34l0-.05a3.21,3.21,0,0,1,4.34-1.31l3.23,1.74A3.19,3.19,0,0,1,196.28,315.12Z"/><path class="cls-3" d="M191.41,324.18l0,.06a3.19,3.19,0,0,1-4.33,1.3l-3.23-1.73a3.19,3.19,0,0,1-1.3-4.33l0-.06a3.2,3.2,0,0,1,4.33-1.31l3.23,1.74A3.19,3.19,0,0,1,191.41,324.18Z"/><path class="cls-3" d="M186.55,333.24l0,.06a3.2,3.2,0,0,1-4.34,1.3L179,332.87a3.19,3.19,0,0,1-1.31-4.33l0-.06a3.19,3.19,0,0,1,4.33-1.3l3.23,1.73A3.2,3.2,0,0,1,186.55,333.24Z"/><rect class="cls-3" x="279.45" y="137.29" width="11.9" height="21.31" rx="3.31" ry="3.31" transform="translate(20.04 329.38) rotate(-61.76)"/><rect class="cls-3" x="226.54" y="235.8" width="11.9" height="21.31" rx="3.31" ry="3.31" transform="translate(-94.63 334.68) rotate(-61.76)"/><path class="cls-2" d="M272.17,215.31l1.49-7.21s-11.89,12.64-25.25,37.52-33.07,63.17-48.73,84.65c0,0,37.91-47.14,40.62-51.85S272.17,215.31,272.17,215.31Z"/><path class="cls-3" d="M273.66,208.1s-54,98.32-89.65,143.65l-11.67,21.74s42.49-43.05,71.56-97.18C243.9,276.31,281.86,212.51,273.66,208.1Z"/></g></g></svg>