<svg xmlns="http://www.w3.org/2000/svg" viewBox="0 0 156.27 138.3"><defs><style>.cls-1{fill:none;stroke:#ea7154;stroke-linecap:round;stroke-miterlimit:10;stroke-width:2px;}</style></defs><title>Asset 1</title><g id="Layer_2" data-name="Layer 2"><g id="Layer_1-2" data-name="Layer 1"><ellipse class="cls-1" cx="105.67" cy="82.78" rx="33.86" ry="11.29"/><path class="cls-1" d="M111.31,120.67S100,132,95.19,135.18s-8.07,3.22-9.68-3.23-1.61-11.28-4.84-11.28-19.34,3.22-22.57,3.22-3.56-3.71,3.06-8.3S71.43,91.32,71.81,82.78"/><path class="cls-1" d="M106.81,125.33s18.72-2.58,21.59-3.06c3.43-.57,15.47,4.78,21.39,4.2s6.68-3.82,4-6.68-11.08-11.65-11.65-16.05-2.57-19.21-2.63-21"/><ellipse class="cls-1" cx="105.28" cy="81.97" rx="16.62" ry="2.67"/><path class="cls-1" d="M142.15,117.11s-5.23-5.48-6.88-7.25c-1.33-1.45-4-4-4.58-5.54s-.77-11.13-1.53-12.85"/><path class="cls-1" d="M110.69,94.49s.29,13.82,1.45,13,3.17-3.08,3.85-2.6,7.22,9.82,11.36,8.76,1.06-4.24.38-5.78-2-13.52-2.31-15.26"/><path class="cls-1" d="M114.35,93.93s0,7.54,2.21,6.58,3.37,4.43,5.49,6.16,2.41,1.35,1.25-4a59.28,59.28,0,0,1-1.25-10.1"/><path class="cls-1" d="M61.1,1.42l6.35,5.27a2.34,2.34,0,0,0,.43.26l35.9,15.75a1.84,1.84,0,0,1,.68,2.86L79.84,55.25a1.84,1.84,0,0,1-2.91-.1L53.88,23.3a2.58,2.58,0,0,0-.32-.34l-6.11-5.07a1.84,1.84,0,0,1-.25-2.59L58.51,1.67A1.84,1.84,0,0,1,61.1,1.42Z"/><line class="cls-1" x1="71.98" y1="48.25" x2="95.93" y2="19.45"/><line class="cls-1" x1="57.07" y1="19.47" x2="67.58" y2="6.79"/><line class="cls-1" x1="53.14" y1="16.2" x2="63.65" y2="3.53"/><line class="cls-1" x1="100.74" y1="21.42" x2="82.13" y2="43.87"/><line class="cls-1" x1="79.85" y1="46.61" x2="78.68" y2="48.03"/><path class="cls-1" d="M53.31,23,9.06,78.48a2.71,2.71,0,0,1-3.81.43L2,76.34a2.72,2.72,0,0,1-.43-3.81L47,15.6"/></g></g></svg>