<svg xmlns="http://www.w3.org/2000/svg" viewBox="0 0 391.98 272.74"><defs><style>.cls-1{fill:#e6e6e6;}.cls-2{fill:#646464;}.cls-3{fill:#717171;}.cls-4{fill:#b1b1b1;}.cls-5{fill:#2e2e2e;}</style></defs><title>ELEPHANT</title><g id="OBJECTS"><path class="cls-1" d="M42.8,145.7a126.31,126.31,0,0,1-24.69,4.63c-6.08.38-.77,3.47,10.38,4.67s17.64-1.95,17.05-7.23S42.8,145.7,42.8,145.7Z"/><path class="cls-2" d="M136.19,130.31c.72,9.31-2.15,31.13,0,43.66s6.44,40.79,7.87,49.38,4.3,13.59,0,16.46-7.71,8.58-8.68,13.23,9.4,3.22,9.4,3.22l24.33.21s5-26.68,5-42.79-3.94-73-8.23-77.64S136.19,130.31,136.19,130.31Z"/><path class="cls-2" d="M249.26,182.91c6.44,5.73,11.45,13.24,9.66,22.19s-2.85,23.61-4.64,25.76-14,11.45-10,17.53,19.32,4.3,26.12,4.3,9.31-6.8,10-13.6,1.43-19.68,2.15-23.62,4.65-19.32,7.87-26.48-3.93-12.88-11.09-11.44S249.26,182.91,249.26,182.91Z"/><path class="cls-3" d="M101.48,133.89c4,.79,7.88.72,11.45-3.58s12.88-9.66,16.1-6.08,6.45,20,11.45,25.41,14.15,15.38,14.24,22.54-.28,33.63,2.23,44.73,4.29,17.88,0,27.19-7.34,11.81,2.59,14,23.88,2.56,26.75-1.58-2.15-9.51-2.51-15.59-2.89-20.4,3.39-44.37,8.78-24.69,12-24.33,19.68,10.73,28.62,12.88,27.91,6.65,38.29,8.33,25.76-4,32.2-2,11.1,1.22,9.66,16.25-1.43,26.12-4.29,29.7-9.66,11.23-8.59,15.63,16.82,3.39,24.34,3.54,16.1,1.94,13.59-13.09,2.78-33.63,5.64-40.43,4.38-16.82,4.74-23.62,7.87-35.78,9.66-37.57-2.86,34.35-2.86,41.51-2.87,12.17-3.94,16.46-.36,12.19,1.07,15.4-.71-5.74,2.51-8.6,3.32-4.65,3.63-10.38-1.38-11.53,0-18.83,5-31.26,5.31-39.13-1.43-24-2.5-31.49S348,65.55,305.44,49.09s-55.1-5.73-68.34-3.58S196,40.14,182,37.28s-25.37-1.07-46.68,3.22-37,1.43-52.08,7.16-16.1,16.82-19,24.69-20,45.8-22.54,61.54-.72,49,4.65,64.41S58.55,233.72,75,234.44s18.6-7.52,15.38-12.53-10.73-5.36-11.09-2.5,6.08,5.37,2.86,6.08a11.66,11.66,0,0,1-12.88-5.36c-3.94-6.09-8.23-31.85-7.16-47.95s3.58-30.06,8.95-31.13,7.51-5,10.73-3.58,4.65,7.87,11.45,3.22S99.3,133.46,101.48,133.89Z"/><path class="cls-4" d="M126.53,50.16c10.38-6.44,20-13.24,30.77-7.15s16.1,18.24,21.11,25.4,5,11.45,0,21.47-11.8,15.74-19.68,19.32-21.11,5.73-26.47,8.59-10,14.31-11.81,12.52-1.43-12.16-3.22-16.81-5.73-20.4-5.37-24.34.36-20,4.29-25.76S126.53,50.16,126.53,50.16Z"/><path class="cls-4" d="M66.06,119.94c-2.86,7.15-11.81,19-7.51,21.11s16.26,2.07,18.68-2.72,7.44-17,7.44-18.39"/><path class="cls-1" d="M63.55,137.47C58.78,141.35,46,155,35.29,157.87s-20.4,4.29-12.17,6.08,19.28.85,30.77-6.8S71.35,139.62,71,137.47,66,135.52,63.55,137.47Z"/><circle class="cls-5" cx="71.25" cy="92.92" r="2.33"/></g></svg>