<svg xmlns="http://www.w3.org/2000/svg" viewBox="0 0 391.98 449.34"><defs><style>.cls-1{fill:#717171;}.cls-2{fill:#1b0800;}.cls-3{fill:#dbdbdb;}.cls-4{fill:#2e2e2e;}</style></defs><title>GIRAFFE</title><g id="OBJECTS"><g id="_Group_" data-name="&lt;Group&gt;"><path class="cls-1" d="M136.6,413.17h7.74c-.34,2.43-.63,3.86-.84,4-1.6,1.23-6.59,1.55-8.36-.87C134.55,415.51,135.94,414.62,136.6,413.17Z"/><path class="cls-1" d="M168.21,412.51h7.66a9.68,9.68,0,0,1-.3,3.1c-1.43,1.43-6.33,2.4-8.4.22C166.48,415.11,167.74,414,168.21,412.51Z"/><path class="cls-1" d="M216.06,413.17h0c-.08,1.65-.11,2.73-.11,3.08,0,3.19-8.32,2.47-9.16,1.64s1.5-3.77,1.5-3.77A75.91,75.91,0,0,1,216.06,413.17Z"/><path class="cls-1" d="M250.41,411.14c.39,2.43.62,3.83.62,3.83s-8.93,4.15-10.52,2.56,1-5.11,1-5.11S248.82,411.14,250.41,411.14Z"/><path class="cls-1" d="M272.12,318.24a4.39,4.39,0,0,1,.37-1.11,2.94,2.94,0,0,1,1.1-1.17c1.79-1.08,4.17.24,5,2.66s5.92.5,3.75,2.68c-2.83,2.83-10,1.53-10.29-1.76A5.67,5.67,0,0,1,272.12,318.24Z"/><path class="cls-1" d="M259.32,283.6c1.12,12.91,4.62,32.53,13.08,33.48l.09.05a4.39,4.39,0,0,0-.37,1.11h-.07c-10.31,0-16.08-25.86-16.08-35.75s-2.57-10-2.57-10c.14-.63.27-1.25.39-1.84a5.9,5.9,0,0,0,0-2.68l.17,0S258.2,270.69,259.32,283.6Z"/><path class="cls-1" d="M209.77,317.65a88.63,88.63,0,0,1-9.62-1,109.56,109.56,0,0,1-28.58-8.92c1.8,34.33,4.6,91,4.3,104.83h-7.66L152.91,317l-3.77-23.5a63,63,0,0,1-15.24-18.19,17.4,17.4,0,0,1-1.37-3.73C124,238.81,145.11,89.31,145.11,89.31a17.62,17.62,0,0,1-3.56.63s-10.84,13-21,15.1S104.18,96.85,105,93.77c1.27-4.89,4.89-1.92,6-5.32.83-2.64,7.07-18.45,13.81-29.33h0a46.92,46.92,0,0,1,4.82-6.67c.3-.35.61-.68.91-1A14.16,14.16,0,0,1,133.75,49c4.27-2.33,9.21-2.17,13.33-1.4h.11l-.07,1.72a2.47,2.47,0,0,0,4.23.43l0-1.16h0a14.92,14.92,0,0,1,3.89,1.72c1-1,8.53-3.33,14.83-1.15s8.38,8.45,7.57,9.26-8.82,1.72-14.25-.81c0,0-14.15,152.61,8.8,175.57,21.67,21.66,78.19,20.61,81.6,34.73a5.9,5.9,0,0,1,0,2.68c-.12.59-.25,1.21-.39,1.84-4,17.56-17,50.45-15.34,61.93,1.46,10.21,9.95,62.14,12.35,76.74-1.59,0-8.95,1.28-8.95,1.28s-12.59-35.73-22.26-64.86C215.17,335.43,211.66,324.44,209.77,317.65Z"/><path class="cls-1" d="M152.93,36.78A3.91,3.91,0,0,1,151,39.92l.31,8.71,0,1.16a2.47,2.47,0,0,1-4.23-.43l.07-1.72.29-8a3.49,3.49,0,0,1-1.59-4.15C146.71,32.6,153,33.11,152.93,36.78Z"/><path class="cls-1" d="M131.52,42.38,133.75,49a14.16,14.16,0,0,0-3.26,2.44L128.42,43A3.13,3.13,0,0,1,126,39.83c0-2.71,5.57-3.81,6.39-.63A3.51,3.51,0,0,1,131.52,42.38Z"/><path class="cls-1" d="M113.49,55.71c7.29-5,16.09-3.26,16.09-3.26a46.92,46.92,0,0,0-4.82,6.67h0c-3.73,3.73-16,6.69-17.42,5.31S110,58.11,113.49,55.71Z"/><path class="cls-1" d="M219.2,347.56s-2.57,52.05-3.13,65.61h0a75.91,75.91,0,0,0-7.76.95l-8.15-97.52a88.63,88.63,0,0,0,9.62,1C211.66,324.44,215.17,335.43,219.2,347.56Z"/><path class="cls-1" d="M149.14,293.5l3.77,23.5c-2.63,33.64-6.58,82-8.57,96.17H136.6l-4.07-141.59a17.4,17.4,0,0,0,1.37,3.73A63,63,0,0,0,149.14,293.5Z"/><path class="cls-1" d="M120.51,105c10.2-2.13,21-15.1,21-15.1a17.62,17.62,0,0,0,3.56-.63c4.65-1.28,12.29-5.13,13-16.59"/><path class="cls-1" d="M155.21,50.35c1-1,8.53-3.33,14.83-1.15s8.38,8.45,7.57,9.26-7.24,2.53-12.67,0a21.65,21.65,0,0,1-2.83-1.56"/><path class="cls-1" d="M241.46,412.42s-12.59-35.73-22.26-64.86c-4-12.13-7.54-23.12-9.43-29.91A37.27,37.27,0,0,1,208.3,311c0-7.33,6.06-24.55,6.06-24.55"/><path class="cls-1" d="M253.4,272.47c-4,17.56-17,50.45-15.34,61.93,1.46,10.21,9.95,62.14,12.35,76.74"/><path class="cls-1" d="M171.57,307.68a109.56,109.56,0,0,0,28.58,8.92,88.63,88.63,0,0,0,9.62,1h0"/><path class="cls-1" d="M175.87,412.51c.3-13.82-2.5-70.5-4.3-104.83-.82-15.78-1.44-26.84-1.44-26.84"/><polyline class="cls-1" points="146.23 275.31 149.14 293.5 152.91 317 168.21 412.51"/></g><path class="cls-2" d="M112,97.4a1.12,1.12,0,0,1-.92-.12,1.25,1.25,0,0,1-.57-.73.55.55,0,0,1,.37-.67h0a1.25,1.25,0,0,1,.92.12,1.15,1.15,0,0,1,.57.73.55.55,0,0,1-.38.68Z"/><path class="cls-2" d="M119.43,97.61a1.94,1.94,0,0,1,.68-1.38,1.87,1.87,0,0,1,.73-.42,1.32,1.32,0,0,1,.94,0,.41.41,0,0,1,.22.53.38.38,0,0,1-.09.13l-.13.13a4.63,4.63,0,0,0-.32.37l-.35.35a3.35,3.35,0,0,1-1,.68L120,98a.44.44,0,0,1-.57-.25A.29.29,0,0,1,119.43,97.61Z"/><path class="cls-3" d="M144.4,82.27a1.28,1.28,0,0,0-2-.37,1.19,1.19,0,0,0-.18,1.4,1.22,1.22,0,0,0,.55.57,1.19,1.19,0,0,0,1.41-.19A1.18,1.18,0,0,0,144.4,82.27Z"/><path class="cls-3" d="M146.58,79.71a.87.87,0,0,0-1.12-.14.69.69,0,0,0,0,1.19.88.88,0,0,0,1.12-.14A.65.65,0,0,0,146.58,79.71Z"/><path class="cls-3" d="M149.21,81.29a.72.72,0,0,0,0,1.44A.72.72,0,0,0,149.21,81.29Z"/><path class="cls-3" d="M150.69,78.31a.79.79,0,0,0,0,1.58A.79.79,0,0,0,150.69,78.31Z"/><path class="cls-3" d="M149.21,92.71c-2.13,2.12-.43,7,1.48,7s6.38-.74,6.38-2.71,2.55-6.22,0-6.22S150.27,91.64,149.21,92.71Z"/><path class="cls-3" d="M155.58,111.62c-1.59-1.59-7.7-1.06-7.7,1.07s-1.2,9.14,1.44,9.14,8.81.42,8.81-2.34S157.28,113.33,155.58,111.62Z"/><path class="cls-3" d="M140.85,121.85s4.27,1.68,4.27,3.8-4.65,8.13-5.85,9.34"/><path class="cls-3" d="M158.2,128.42s-7.18-2.73-9.06-.85-2.37,6.84-.92,8.29,7.15,2.55,8.43,1.27S159.62,129.84,158.2,128.42Z"/><path class="cls-3" d="M158.13,146.91c-1.59-1.59-9-7.92-10.52-6.37s-1,4.67-1,6.37.94,6.81,2.49,6.81,6.23,1.48,7.72,0S159.09,147.87,158.13,146.91Z"/><path class="cls-3" d="M137.06,154.38a19.4,19.4,0,0,1,4.07,2.31c1,1-4.07,7.23-4.07,7.23h-1"/><path class="cls-3" d="M147.61,159.15c-1,1-4.36,8.17-4.36,9.66s14.88,7.76,14.88,3.4c0-2.92.34-10.94-1.06-11.9C154.89,158.81,148.81,157.94,147.61,159.15Z"/><path class="cls-3" d="M136.88,178.06c-1.12,1.11-1.2,9,0,10.2s7.5.06,8.24.8,4.92-.48,5.59-6.22-3.08-6.7-5.59-6.7S136.88,178.06,136.88,178.06Z"/><path class="cls-3" d="M150.71,196.71c-2.34,0-2.75,7.17.08,8.13s9.84-.48,9.84-1.91S159.44,196.71,150.71,196.71Z"/><path class="cls-3" d="M156.8,186.35c-1.51-1.52-6.93,2.47-5.26,4.14s4.15,4.78,5.26,3.67S159,188.5,156.8,186.35Z"/><path class="cls-3" d="M144.85,205.15c-1.35-1.35-4.12,1.33-5,2.24s-.89,5.74,1.43,5.74S146.6,206.9,144.85,205.15Z"/><path class="cls-3" d="M151.22,209.94c-2,0-2.71,5.9-1.27,7.33s7,3.52,8.11,2.4.9-3.11,1.62-3.83.79-3-.64-4.46S153,209.94,151.22,209.94Z"/><path class="cls-3" d="M143.4,218.87c-1.1,0-4.66,2.59-3.58,3.67s2.94,5.48,5.55,2.87S145.46,218.87,143.4,218.87Z"/><path class="cls-3" d="M162.54,228.75c-2.62-2.62-6.11,1.08-7.9,2.88s-1.18,11.63,2,11.63,4-4.14,4-5.74S164.54,230.75,162.54,228.75Z"/><path class="cls-3" d="M158.06,223.81c0-1.67-5.48-3.27-6.84-1.91s-3.93,4.64-2,6.54S158.06,226.68,158.06,223.81Z"/><path class="cls-3" d="M146.23,240.39c-1.86,0-3.18,1.12-3.18,4.15s4.08,9.23,6.14,7.17,4.27-5.26,3-6.53S146.23,240.39,146.23,240.39Z"/><path class="cls-3" d="M168.12,238.17c-2.24,0-3.26,5.17-1.91,6.53s6.38,3.12,6.38,1.56,2.31-3.55,1-4.91S169.72,238.17,168.12,238.17Z"/><path class="cls-3" d="M175.89,247.73c-2.34,0-7.82,13.1-6.1,14.82s9.65,6.22,12.05,3.83,5.94-12.3,4-14.26S178.24,247.73,175.89,247.73Z"/><path class="cls-3" d="M161.06,246.87c-1.86,0-4.16,3.77-2.68,5.25s5.56,2.69,7.22,1S162.61,246.87,161.06,246.87Z"/><path class="cls-3" d="M163.11,260.48c-1.3-1.3-4.73.64-4.73,1.92s2,6.37,3.55,6.37,4-.64,4-2.55S163.87,261.24,163.11,260.48Z"/><path class="cls-3" d="M193.79,255.22c-2.07,0-2.92,3.82-1.91,4.83s7,3.3,8,2.35,2-4,1-5S195.39,255.22,193.79,255.22Z"/><path class="cls-3" d="M208.78,258.92c-1.78,0-5.1,13.52-3.35,15.27s12.76.64,14.67-4.3-2.37-8.07-4.15-9.84S210.05,258.92,208.78,258.92Z"/><path class="cls-3" d="M188.69,246.26c-1.59,0-3,2.94-1.75,4.15s4.1,2.87,5.26,1.71S190.76,246.26,188.69,246.26Z"/><path class="cls-3" d="M188.21,263.62c-.79.79-1.8,5-.85,5.95s7.62,3.91,9,2.55,2.34-5.26,1.33-6.27S189.22,262.61,188.21,263.62Z"/><path class="cls-3" d="M223.18,256.6c-1.27,0-3.82.28-3.82,2.32s3.18,10.22,4.88,10.22,5.64-2.44,5.64-4.78S224.88,256.6,223.18,256.6Z"/><path class="cls-3" d="M239.87,263.36c-2.24-.78-4.44-1.3-5.74,0s-.48,6.58.74,7.8,5,1.39,6-.53S240.4,263.54,239.87,263.36Z"/><path class="cls-3" d="M246.35,264.36c-1.17,0-3.4,1.9-2.76,3.56s1.91,3.14,3.4,3.14,3.3-2.26,3.3-3.74S247.63,264.36,246.35,264.36Z"/><path class="cls-3" d="M227,277c-.5-1.34-3.93,1.17-5.1,2.34s-.32,4,.63,5,3.46.91,5.11-.74S227.65,278.71,227,277Z"/><path class="cls-3" d="M220.58,295.18c-1.25-1.25-4.67-1-6.11.41s-2.29,4.86-.85,6.29,4.41,2.71,5.74,1.38S221.94,296.54,220.58,295.18Z"/><path class="cls-3" d="M217.55,286.47c-1.27,0-2.66,5.53-1.59,5.53s5.31,1.59,6.16.74,1-3.61,1-4.36S218.72,286.47,217.55,286.47Z"/><path class="cls-3" d="M228.36,286.47c-.47-.46-2.63.1-2.63,1.06s1.32,2.2,1.32,2.2.35.95,1.31,0S228.36,286.47,228.36,286.47Z"/><path class="cls-3" d="M221.34,311.13c-1.38-.44-2.13.85-2.13,2.12s-.26,3.83,1.06,3.83,3.34-.21,3.34-1.17S222.68,311.55,221.34,311.13Z"/><path class="cls-3" d="M140.61,61.86c-.9,2,3.57,1.89,5,2.34s2.59.78,2.92.44-.53-2.24-2.72-3.08S141,61,140.61,61.86Z"/><circle class="cls-4" cx="143.33" cy="71.91" r="1.86"/></g></svg>