<svg xmlns="http://www.w3.org/2000/svg" viewBox="0 0 93.98 149.6"><defs><style>.cls-1,.cls-2,.cls-3{fill:none;stroke:#ea7154;stroke-width:2px;}.cls-1,.cls-2{stroke-linecap:round;}.cls-1,.cls-3{stroke-miterlimit:10;}.cls-2{stroke-linejoin:round;}.cls-4{fill:#ea7154;}</style></defs><title>Asset 2</title><g id="Layer_2" data-name="Layer 2"><g id="Layer_1-2" data-name="Layer 1"><line class="cls-1" x1="92.97" y1="132.13" x2="80.26" y2="132.13"/><line class="cls-1" x1="92.97" y1="109.7" x2="80.26" y2="109.7"/><line class="cls-1" x1="92.97" y1="87.27" x2="80.26" y2="87.27"/><line class="cls-1" x1="92.97" y1="64.84" x2="80.26" y2="64.84"/><line class="cls-1" x1="92.97" y1="42.41" x2="80.26" y2="42.41"/><line class="cls-1" x1="92.97" y1="19.97" x2="80.26" y2="19.97"/><polyline class="cls-1" points="80.26 1 92.98 1 92.98 148.6 80.26 148.6"/><path class="cls-2" d="M40.52,148.15H31.09V108.76h9.43Z"/><path class="cls-3" d="M3.78,78.55c0-17.49,31.66-66.95,31.66-66.95S68.31,60.82,68.31,78.3,53.41,109,35.93,109,3.78,96,3.78,78.55Z"/><path class="cls-4" d="M6.87,95.87C4.41,94.47,0,86.09,0,86.09s9.52-.69,12,.71a5.08,5.08,0,0,1,1.72,7A5,5,0,0,1,6.87,95.87Z"/><path class="cls-4" d="M8.49,73.44C6.56,71.68,4.31,63.23,4.31,63.23S13,64.56,15,66.32A4.69,4.69,0,0,1,15.07,73,4.63,4.63,0,0,1,8.49,73.44Z"/><path class="cls-4" d="M23.62,31.48c-.92-1.65-.53-8-.53-8s5.67,2.91,6.58,4.55a3.39,3.39,0,0,1-1.43,4.59A3.35,3.35,0,0,1,23.62,31.48Z"/><path class="cls-4" d="M14.15,50c-1.32-1.88-1.66-9.6-1.66-9.6s7.26,2.81,8.59,4.69a4.14,4.14,0,0,1-1.16,5.75A4.09,4.09,0,0,1,14.15,50Z"/><path class="cls-4" d="M64.78,95.87c2.45-1.4,6.87-9.78,6.87-9.78s-9.53-.69-12,.71a5.07,5.07,0,0,0-1.72,7A5,5,0,0,0,64.78,95.87Z"/><path class="cls-4" d="M63.16,73.44c1.93-1.76,4.18-10.21,4.18-10.21s-8.72,1.33-10.64,3.09A4.69,4.69,0,0,0,56.58,73,4.63,4.63,0,0,0,63.16,73.44Z"/><path class="cls-4" d="M48,31.48c.92-1.65.53-8,.53-8S42.89,26.43,42,28.07a3.41,3.41,0,0,0,1.44,4.59A3.35,3.35,0,0,0,48,31.48Z"/><path class="cls-4" d="M57.49,50c1.33-1.88,1.67-9.6,1.67-9.6s-7.26,2.81-8.59,4.69a4.14,4.14,0,0,0,1.16,5.75A4.08,4.08,0,0,0,57.49,50Z"/></g></g></svg>