<svg xmlns="http://www.w3.org/2000/svg" viewBox="0 0 113.98 100.49"><defs><style>.cls-1{fill:#ea7154;}</style></defs><title>Asset 3</title><g id="Layer_2" data-name="Layer 2"><g id="Layer_1-2" data-name="Layer 1"><path class="cls-1" d="M4.84,92.92A54.47,54.47,0,0,1,9,74.83c14.49,1.33,22.79-.74,34.68-4.66A1.13,1.13,0,0,0,43,68c-10.77,3.55-19,5.8-33,4.62a90.6,90.6,0,0,1,5.34-10.31c10.73,1,18.94,1.14,33-4.64a1.13,1.13,0,0,0-.86-2.1C34.36,61,26.49,61,16.6,60.17c1.94-3.08,4.11-6.15,6.47-9.2,33.66-.15,54.78-7.84,76.79-49.31a1.13,1.13,0,0,0-1-1.66C44.15,0-.68,19.17,7.1,73.58A56.9,56.9,0,0,0,2.58,92.85,1.13,1.13,0,0,0,4.84,92.92ZM24.9,48.69C43.18,26.21,69.05,9.28,96.67,2.81,76,40.58,56,48.27,24.9,48.69ZM89,2.5C51,14,21.24,43.29,8.89,69.5,4.22,22.48,41.79,4.62,89,2.5Z"/><path class="cls-1" d="M112.7,100.49H102.07a6.48,6.48,0,0,1-4.84-2.17l-5.51-6.2a3.88,3.88,0,0,0-5.37-.43l-6.77,5.54a6.45,6.45,0,0,1-8.68-.43L59.62,85.52a3.88,3.88,0,0,0-5.4-.1L39.94,98.75a6.49,6.49,0,0,1-4.42,1.74H1.28a1.3,1.3,0,0,1,0-2.59H35.52a3.88,3.88,0,0,0,2.65-1L52.45,83.53a6.45,6.45,0,0,1,9,.15L72.73,95a3.89,3.89,0,0,0,5.21.26l6.77-5.54a6.45,6.45,0,0,1,8.94.71l5.52,6.2a3.86,3.86,0,0,0,2.9,1.3H112.7A1.3,1.3,0,0,1,112.7,100.49Z"/></g></g></svg>