<svg xmlns="http://www.w3.org/2000/svg" viewBox="0 0 98.17 97.91"><defs><style>.cls-1{fill:#154f4f;}</style></defs><title>Asset 5</title><g id="Layer_2" data-name="Layer 2"><g id="Layer_1-2" data-name="Layer 1"><path class="cls-1" d="M98.09,95.36,86.52,55.81a2,2,0,0,0-1.91-1.44H66.88a2,2,0,0,0,0,4H83.11l10.4,35.55H4.66l10.4-35.55H30.72a2,2,0,0,0,0-4H13.56a2,2,0,0,0-1.91,1.44L.08,95.36A2,2,0,0,0,.4,97.11a2,2,0,0,0,1.6.8H96.17a2,2,0,0,0,1.92-2.55Z"/><path class="cls-1" d="M49.52,39.49a12.89,12.89,0,1,0-9.13-3.77A12.86,12.86,0,0,0,49.52,39.49ZM43.21,20.27a8.93,8.93,0,1,1-2.61,6.31A8.86,8.86,0,0,1,43.21,20.27Z"/><path class="cls-1" d="M48.31,62.93a1.94,1.94,0,0,0,1.21.41,2,2,0,0,0,1.22-.41c.94-.72,23-17.85,24.5-36.59.54-6.9-1.77-13.13-6.89-18.52A25.6,25.6,0,0,0,49.52,0,25.64,25.64,0,0,0,30.69,7.82c-5.11,5.39-7.43,11.62-6.88,18.52C25.29,45.08,47.37,62.21,48.31,62.93ZM33.59,10.57A21.65,21.65,0,0,1,49.52,4a21.68,21.68,0,0,1,15.94,6.58c4.3,4.53,6.25,9.73,5.8,15.45C70.11,40.62,54.1,55,49.52,58.78,44.94,55,28.94,40.62,27.79,26,27.34,20.3,29.29,15.1,33.59,10.57Z"/><path class="cls-1" d="M67.39,74.08a2,2,0,0,0,2.82,0L72.29,72l2.09,2.08a2,2,0,0,0,2.82,0,2,2,0,0,0,0-2.83l-2.08-2.08,2.08-2.08a2,2,0,0,0-2.82-2.82l-2.09,2.08-2.08-2.08a2,2,0,0,0-2.82,2.82l2.08,2.08-2.08,2.08A2,2,0,0,0,67.39,74.08Z"/><path class="cls-1" d="M15.35,82.78a16.15,16.15,0,0,0-1.83,2.89,2,2,0,1,0,3.58,1.78,11.78,11.78,0,0,1,1.37-2.17,2,2,0,0,0-3.12-2.5Z"/><path class="cls-1" d="M47.68,80.46l-.32-.08a2,2,0,1,0-1,3.87l.32.08c2,.5,4,1,5.88,1.46a2.3,2.3,0,0,0,.45,0,2,2,0,0,0,.45-3.94C51.59,81.46,49.69,81,47.68,80.46Z"/><path class="cls-1" d="M21.23,78.47A2,2,0,0,0,22,82.33a2,2,0,0,0,.73-.14,16.14,16.14,0,0,1,5.53-1,2,2,0,0,0,1.94-2.05,2,2,0,0,0-2.05-1.94A19.93,19.93,0,0,0,21.23,78.47Z"/><path class="cls-1" d="M65.24,83.11A20.21,20.21,0,0,1,59.5,83,2,2,0,1,0,59,87a32.07,32.07,0,0,0,3.93.28,18.15,18.15,0,0,0,3-.23,2,2,0,1,0-.64-3.94Z"/><path class="cls-1" d="M34.76,77.64a2,2,0,1,0-.57,4c1.77.25,3.76.63,6.07,1.16a2.3,2.3,0,0,0,.45,0,2,2,0,0,0,.44-3.94C38.73,78.31,36.64,77.91,34.76,77.64Z"/><path class="cls-1" d="M70.39,78.81a7,7,0,0,1-1,2.07,2,2,0,1,0,3.19,2.39A10.79,10.79,0,0,0,74.2,80a2,2,0,0,0-3.81-1.19Z"/></g></g></svg>