<svg xmlns="http://www.w3.org/2000/svg" viewBox="0 0 111.27 102"><defs><style>.cls-1{fill:#154f4f;}</style></defs><title>Asset 4</title><g id="Layer_2" data-name="Layer 2"><g id="Layer_1-2" data-name="Layer 1"><path class="cls-1" d="M20.4,98.29h76a7.71,7.71,0,0,0,3.28-.75A12.06,12.06,0,0,0,96.25,74.2l-1.9-.11.16-1.89c0-.57.07-1.15.07-1.73A20.4,20.4,0,0,0,68.15,51l-1.07.33-.79-.79a26.89,26.89,0,0,0-45.21,13l-.31,1.36-1.39.08a16.69,16.69,0,0,0,1,33.35Zm90.87-12.05A15.7,15.7,0,0,1,101.15,101a11,11,0,0,1-4.71,1h-76a20.4,20.4,0,0,1-2.6-40.64A30.61,30.61,0,0,1,68.12,47.13,24.12,24.12,0,0,1,98.29,70.47v.25A15.76,15.76,0,0,1,111.27,86.24Z"/><circle class="cls-1" cx="87.16" cy="22.25" r="7.42"/><path class="cls-1" d="M87.16,0h0A1.85,1.85,0,0,1,89,1.85V9.27a1.86,1.86,0,0,1-1.86,1.86h0a1.85,1.85,0,0,1-1.85-1.86V1.85A1.85,1.85,0,0,1,87.16,0Z"/><path class="cls-1" d="M87.16,33.38h0A1.86,1.86,0,0,1,89,35.24v7.41a1.86,1.86,0,0,1-1.86,1.86h0a1.85,1.85,0,0,1-1.85-1.86V35.24A1.85,1.85,0,0,1,87.16,33.38Z"/><path class="cls-1" d="M109.42,22.25h0a1.86,1.86,0,0,1-1.86,1.86h-7.41a1.86,1.86,0,0,1-1.86-1.86h0a1.85,1.85,0,0,1,1.86-1.85h7.41A1.85,1.85,0,0,1,109.42,22.25Z"/><path class="cls-1" d="M76,22.25h0a1.86,1.86,0,0,1-1.86,1.86H66.76a1.85,1.85,0,0,1-1.85-1.86h0a1.85,1.85,0,0,1,1.85-1.85h7.42A1.85,1.85,0,0,1,76,22.25Z"/><path class="cls-1" d="M106.44,11.13h0a1.86,1.86,0,0,1-.68,2.53l-6.43,3.71a1.85,1.85,0,0,1-2.53-.68h0a1.85,1.85,0,0,1,.68-2.53l6.42-3.71A1.86,1.86,0,0,1,106.44,11.13Z"/><path class="cls-1" d="M77.53,27.82h0a1.85,1.85,0,0,1-.68,2.53l-6.43,3.71a1.85,1.85,0,0,1-2.53-.68h0a1.85,1.85,0,0,1,.68-2.53L75,27.14A1.86,1.86,0,0,1,77.53,27.82Z"/><path class="cls-1" d="M98.29,3h0A1.85,1.85,0,0,1,99,5.51l-3.71,6.43a1.85,1.85,0,0,1-2.53.68h0a1.86,1.86,0,0,1-.68-2.54l3.71-6.42A1.85,1.85,0,0,1,98.29,3Z"/><path class="cls-1" d="M81.6,31.89h0a1.85,1.85,0,0,1,.68,2.53l-3.71,6.43a1.85,1.85,0,0,1-2.53.68h0A1.86,1.86,0,0,1,75.36,39l3.71-6.42A1.85,1.85,0,0,1,81.6,31.89Z"/><path class="cls-1" d="M76,3h0a1.85,1.85,0,0,1,2.53.68l3.71,6.42a1.86,1.86,0,0,1-.68,2.54h0a1.85,1.85,0,0,1-2.53-.68L75.36,5.51A1.85,1.85,0,0,1,76,3Z"/><path class="cls-1" d="M92.73,31.89h0a1.85,1.85,0,0,1,2.53.68L99,39a1.86,1.86,0,0,1-.68,2.54h0a1.85,1.85,0,0,1-2.53-.68l-3.71-6.43A1.85,1.85,0,0,1,92.73,31.89Z"/><path class="cls-1" d="M67.89,11.13h0a1.85,1.85,0,0,1,2.53-.68l6.43,3.71a1.85,1.85,0,0,1,.68,2.53h0a1.86,1.86,0,0,1-2.54.68l-6.42-3.71A1.85,1.85,0,0,1,67.89,11.13Z"/><path class="cls-1" d="M96.8,27.82h0a1.85,1.85,0,0,1,2.53-.68l6.43,3.71a1.86,1.86,0,0,1,.68,2.53h0a1.86,1.86,0,0,1-2.54.68l-6.42-3.71A1.85,1.85,0,0,1,96.8,27.82Z"/></g></g></svg>